<svg width="180" height="50" viewBox="0 0 180 50" fill="none" xmlns="http://www.w3.org/2000/svg">
<g clip-path="url(#clip0_4732_524)">
<path d="M38 0C37.2498 0.763207 35.9831 1.58819 35 2C34.0169 2.41181 33.0641 2.00323 32 2H0V40H7V36L18 25L35 43L40 38L23 20L33 9C36.4294 8.64189 39.5682 7.47149 42 5L40 3L38 0ZM18 15L13 20L7 26V9H23L18 15ZM41 39L36 44L42 50L47 45L41 39Z" fill="#006465"/>
<path d="M29 49H18V48H29V49Z" fill="#006465"/>
<path d="M29 32V49H28V32H29Z" fill="#006465"/>
<path d="M46 31V20H45V31H46Z" fill="#006465"/>
<path d="M30 32H47V31H30V32Z" fill="#006465"/>
<path d="M19 32V49H18V32H19Z" fill="#006465"/>
<path d="M19 33H8V32H19V33Z" fill="#006465"/>
<path d="M30 21H47V20H30V21Z" fill="#006465"/>
<path d="M31 21V10H30V21H31Z" fill="#006465"/>
<path d="M68 39.9998C67.8444 40.0011 68.146 40.0536 68 39.9998V38.9998C67.9733 38.9972 68.0248 39.0102 68 38.9998C67.972 38.9996 68.0277 39.0041 68 38.9998C67.9279 39.0287 68.0777 39.0024 68 38.9998C67.9457 39.0552 68.0721 38.971 68 38.9998C68.1313 38.8503 68.9605 38.1947 69 37.9998C69.0691 37.6986 68.9866 37.3085 69 36.9998C69.0216 36.6253 69 36.528 69 35.9998V34.9998H72V39.9998H71V35.9998H70C69.9875 36.5548 70.0256 37.5187 70 37.9998C69.9842 38.4232 70.1025 38.5887 70 38.9998C69.9291 39.3132 69.2195 39.7647 69 39.9998C68.8033 40.2038 68.3677 39.9998 68 39.9998ZM117 36.9998L115 34.9998H116L117 36.9998L118 34.9998H119L118 36.9998L119 39.9998H118L117 37.9998L116 39.9998H115L117 36.9998ZM63 34.9998H64V36.9998L66 34.9998H67L65 36.9998L67 39.9998H66L64 37.9998V39.9998H63V34.9998ZM146 37.9998V35.9998L145 37.9998H146ZM145 34.9998H146L148 39.9998H147V38.9998H145L144 39.9998H143L145 34.9998ZM140 34.9998H144V35.9998H141V39.9998H140V34.9998ZM135 34.9998H136V36.9998H138V34.9998H139V39.9998H138V37.9998H136V39.9998H135V34.9998ZM130 34.9998H131V37.9998L133 34.9998H134V39.9998H133V36.9998L131 39.9998H130V34.9998ZM125 34.9998H126V36.9998L128 34.9998H129L127 36.9998L130 39.9998H128L127 37.9998H126V39.9998H125V34.9998ZM123 37.9998L122 35.9998V37.9998H123ZM122 34.9998H123L125 39.9998H123V38.9998H121V39.9998H120L122 34.9998ZM113 38.9998C112.814 39.0963 113.21 39.0063 113 38.9998C113.162 38.912 113.897 39.1517 114 38.9998C114.105 38.8439 113.957 38.1829 114 37.9998C114.001 38.1981 114.048 37.8074 114 37.9998C114 37.7948 114.047 37.1993 114 36.9998C113.957 36.8127 114.106 36.1602 114 35.9998C113.897 35.8463 113.162 36.0885 113 35.9998C112.811 35.9101 113.209 35.9998 113 35.9998C112.791 35.9998 112.189 35.9101 112 35.9998C111.838 36.0888 112.103 35.8466 112 35.9998C111.894 36.1604 111.043 36.8128 111 36.9998C110.953 37.1993 111 37.7948 111 37.9998C110.952 37.8074 110.999 38.1981 111 37.9998C111.044 38.1829 111.895 38.8437 112 38.9998C111.839 38.9117 112.104 39.1515 112 38.9998C112.186 39.0967 112.79 39.0067 113 38.9998ZM113 39.9998C112.659 40.006 112.315 40.1308 112 39.9998C111.719 39.8784 111.206 39.2255 111 38.9998C110.795 38.7715 110.101 38.2893 110 37.9998C109.89 37.6867 109.996 38.3315 110 37.9998C109.997 37.6627 109.891 37.3188 110 36.9998C110.1 36.7041 110.794 36.2349 111 35.9998C111.205 35.7707 111.718 35.1235 112 34.9998C112.636 34.7409 113.364 34.7409 114 34.9998C114.283 35.1227 113.795 35.77 114 35.9998C114.206 36.2349 114.9 36.7041 115 36.9998C115.109 37.3189 115.002 37.6627 115 37.9998C115.003 38.3315 115.109 37.6866 115 37.9998C114.899 38.2893 114.205 38.7716 114 38.9998C113.793 39.2261 114.282 39.8791 114 39.9998C113.686 40.13 113.34 40.0052 113 39.9998ZM105 34.9998H106V37.9998L108 34.9998H109V39.9998H108V36.9998L106 39.9998H105V34.9998ZM103 38.9998C102.82 39.1055 103.209 39.0115 103 38.9998C103.144 38.9018 103 38.2548 103 37.9998C103.004 37.8922 103.043 38.0988 103 37.9998C102.962 37.9176 103.074 38.0519 103 37.9998C102.921 37.9467 103.093 38.0193 103 37.9998C102.893 37.9766 103.109 37.9994 103 37.9998H102V38.9998H103ZM101 34.9998H104V35.9998H102V36.9998H103C103.227 36.9979 103.781 36.94 104 36.9998C103.841 36.8738 104.196 37.053 104 36.9998C104.154 37.1259 103.918 37.8183 104 37.9998C104.092 38.2124 105.006 37.7685 105 37.9998C105.006 38.2331 104.09 38.7846 104 38.9998C103.92 39.1832 104.155 39.8733 104 39.9998C103.836 40.129 104.202 39.948 104 39.9998C103.768 40.0603 103.24 40.003 103 39.9998H101V34.9998ZM96 37.9998V35.9998L95 37.9998H96ZM95 34.9998H96L98 39.9998H97V38.9998H95L94 39.9998H93L95 34.9998ZM89 34.9998H90V36.9998L91 34.9998H93L91 36.9998L93 39.9998H92L90 37.9998V39.9998H89V34.9998ZM83 34.9998H84V37.9998H85L86 34.9998H88V39.9998H86V36.9998L85 39.9998H83V34.9998ZM78 34.9998H79V36.9998H81V34.9998H82V39.9998H81V37.9998H79V39.9998H78V34.9998ZM73 34.9998H74V37.9998L76 34.9998H77V39.9998H76V36.9998L74 39.9998H73V34.9998Z" fill="#898989"/>
</g>
<defs>
<clipPath id="clip0_4732_524">
<rect width="180" height="50" fill="white"/>
</clipPath>
</defs>
</svg>
