<svg width="40" height="40" viewBox="0 0 40 40" fill="none" xmlns="http://www.w3.org/2000/svg">
<path fill-rule="evenodd" clip-rule="evenodd" d="M20 38C29.9411 38 38 29.9411 38 20C38 10.0589 29.9411 2 20 2C10.0589 2 2 10.0589 2 20C2 29.9411 10.0589 38 20 38ZM40 20C40 31.0457 31.0457 40 20 40C8.9543 40 0 31.0457 0 20C0 8.9543 8.9543 0 20 0C31.0457 0 40 8.9543 40 20Z" fill="#208D79"/>
<path fill-rule="evenodd" clip-rule="evenodd" d="M40 21H0V19H40V21Z" fill="#208D79"/>
<path fill-rule="evenodd" clip-rule="evenodd" d="M21 2C13.6501 7.10562 9.24589 13.7731 9 20C9.24589 26.2269 13.6501 32.8944 21 38C28.3499 32.8944 31.7541 26.2269 32 20C31.7541 13.7731 28.3499 7.10562 21 2ZM34 20C33.7393 12.5841 28.4418 5.47671 20 0C11.5582 5.47671 7.26071 12.5841 7 20C7.26071 27.4159 11.5582 34.5233 20 40C28.4418 34.5233 33.7393 27.4159 34 20Z" fill="#208D79"/>
<path fill-rule="evenodd" clip-rule="evenodd" d="M20 0C19.602 0.633809 18.3577 1.32456 18 2C15.2669 7.16099 14.0939 13.4423 14 20C14.0939 26.5577 15.2669 32.839 18 38C18.3577 38.6754 19.602 39.3662 20 40C20.398 39.3662 20.6423 38.6754 21 38C23.7331 32.839 24.9061 26.5577 25 20C24.9061 13.4423 23.7331 7.16099 21 2C20.6423 1.32456 20.398 0.63381 20 0ZM20 4C17.816 8.60664 16.0863 14.2475 16 20C16.0863 25.7525 17.816 31.3934 20 36C22.184 31.3934 22.9137 25.7525 23 20C22.9137 14.2475 22.184 8.60664 20 4Z" fill="#208D79"/>
</svg>
