<svg width="22" height="18" viewBox="0 0 22 18" fill="none" xmlns="http://www.w3.org/2000/svg">
<path d="M17.3639 18C16.4721 17.0951 15.5934 16.2164 14.7279 15.3639C13.8754 14.5115 13.082 13.7246 12.3475 13.0033L6.97705 7.63279C6.24262 6.88525 5.45574 6.0918 4.61639 5.25246C3.77705 4.41312 2.90492 3.54754 2 2.65574L4.63607 0C5.5541 0.891803 6.43279 1.76393 7.27213 2.61639C8.11147 3.46885 8.90492 4.26885 9.65246 5.01639L15.0033 10.3672C15.7508 11.1148 16.5443 11.9082 17.3836 12.7475C18.2361 13.5869 19.1082 14.459 20 15.3639L17.3639 18ZM4.63607 18L2 15.3639C2.60328 14.7607 3.19344 14.1705 3.77049 13.5934C4.34754 13.0164 4.90492 12.459 5.44262 11.9213C5.98033 11.3836 6.49836 10.8656 6.99672 10.3672L12.3672 4.99672C13.1148 4.24918 13.9082 3.45574 14.7475 2.61639C15.6 1.76393 16.4721 0.891803 17.3639 0L20 2.65574C19.1082 3.54754 18.2361 4.41312 17.3836 5.25246C16.5443 6.0918 15.7508 6.88525 15.0033 7.63279L9.65246 13.0033C8.93115 13.7246 8.1377 14.5115 7.27213 15.3639C6.41967 16.2164 5.54098 17.0951 4.63607 18Z" fill="#373737"/>
</svg>
