<svg width="14" height="14" viewBox="0 0 14 14" fill="none" xmlns="http://www.w3.org/2000/svg">
<path d="M13.1729 10.2343C13.1609 10.1289 13.1251 10.0276 13.0682 9.93808C13.0113 9.84854 12.9348 9.77311 12.8444 9.71752L10.4988 8.26517C10.2744 8.12544 10.0093 8.06598 9.74668 8.09649C9.48409 8.12701 9.23962 8.2457 9.05324 8.43317L8.27458 9.21204C8.24567 9.24148 8.20917 9.26233 8.16912 9.27226C8.12908 9.28219 8.08706 9.28082 8.04775 9.26829C7.62182 9.12455 6.73759 8.71348 5.60088 7.57686C4.46416 6.44023 4.05318 5.5556 3.90932 5.12965C3.89686 5.09037 3.89552 5.04841 3.90545 5.00841C3.91538 4.96841 3.93619 4.93195 3.96557 4.90306L4.74424 4.12439C4.93179 3.93805 5.05053 3.69356 5.081 3.43094C5.11148 3.16832 5.0519 2.90313 4.912 2.67879L3.45993 0.333118C3.40415 0.24294 3.3287 0.166551 3.23921 0.109674C3.14972 0.0527955 3.04852 0.0169025 2.94319 0.00468285C2.83786 -0.00753682 2.73114 0.00423361 2.631 0.0391125C2.53087 0.0739914 2.43992 0.131075 2.36498 0.206087L0.891888 1.67923C0.417794 2.1538 0.11345 2.77149 0.0260142 3.43657C-0.0614219 4.10166 0.0729312 4.77702 0.408256 5.358C1.27857 6.90051 2.35661 8.31617 3.61216 9.56532C4.86133 10.8209 6.27703 11.8989 7.81959 12.7692C8.40051 13.1047 9.07591 13.2392 9.74104 13.1518C10.4062 13.0643 11.0239 12.7598 11.4983 12.2856L12.9714 10.8125C13.0466 10.7377 13.1038 10.6468 13.1387 10.5466C13.1736 10.4465 13.1853 10.3397 13.1729 10.2343Z" fill="#208D79"/>
</svg>
