<svg width="38" height="38" viewBox="0 0 38 38" fill="none" xmlns="http://www.w3.org/2000/svg">
<path d="M26.5305 11.4594C24.6537 9.58906 22.1512 8.55 19.5098 8.55C14.0183 8.55 9.56951 12.9833 9.56951 18.4557C9.56951 20.1875 10.0561 21.9193 10.8902 23.374L9.5 28.5L14.7829 27.1146C16.2427 27.8766 17.8415 28.2922 19.5098 28.2922C25.0012 28.2922 29.45 23.8589 29.45 18.3865C29.3805 15.8234 28.4073 13.3297 26.5305 11.4594ZM24.3061 21.9885C24.0976 22.5427 23.1244 23.0969 22.6378 23.1661C22.2207 23.2354 21.6646 23.2354 21.1085 23.0969C20.761 22.9583 20.2744 22.8198 19.7183 22.5427C17.2159 21.5036 15.6171 19.0099 15.478 18.8021C15.339 18.6635 14.4354 17.4859 14.4354 16.2391C14.4354 14.9922 15.061 14.438 15.2695 14.1609C15.478 13.8839 15.7561 13.8839 15.9646 13.8839C16.1037 13.8839 16.3122 13.8839 16.4512 13.8839C16.5902 13.8839 16.7988 13.8146 17.0073 14.2995C17.2159 14.7844 17.7024 16.0313 17.7719 16.1005C17.8415 16.2391 17.8415 16.3776 17.7719 16.5161C17.7024 16.6547 17.6329 16.7932 17.4939 16.9318C17.3549 17.0703 17.2159 17.2781 17.1463 17.3474C17.0073 17.4859 16.8683 17.6245 17.0073 17.8323C17.1463 18.1094 17.6329 18.8714 18.3976 19.5641C19.3707 20.3953 20.1354 20.6724 20.4134 20.8109C20.6915 20.9495 20.8305 20.8802 20.9695 20.7417C21.1085 20.6031 21.5951 20.049 21.7341 19.7719C21.8732 19.4948 22.0817 19.5641 22.2902 19.6333C22.4988 19.7026 23.75 20.326 23.9585 20.4646C24.2366 20.6031 24.3756 20.6724 24.4451 20.7417C24.5146 20.9495 24.5146 21.4344 24.3061 21.9885Z" fill="#48C95F"/>
</svg>
