<svg width="158" height="42" viewBox="0 0 158 42" fill="none" xmlns="http://www.w3.org/2000/svg">
<g clip-path="url(#clip0_3705_837)">
<path d="M3.73564 39.8222C3.27137 39.8222 2.84237 39.7482 2.44862 39.6004C2.05487 39.4468 1.71402 39.2335 1.42606 38.9606C1.13809 38.6877 0.911838 38.3665 0.747287 37.9969C0.588614 37.6271 0.509277 37.2234 0.509277 36.7855C0.509277 36.3477 0.588614 35.944 0.747287 35.5744C0.911838 35.2046 1.13809 34.8834 1.42606 34.6105C1.7199 34.3375 2.06369 34.1272 2.45744 33.9793C2.85117 33.8257 3.28018 33.749 3.74446 33.749C4.19109 33.749 4.61128 33.8229 5.00503 33.9707C5.39878 34.113 5.7308 34.329 6.00114 34.619L5.58682 35.0198C5.33413 34.7697 5.05499 34.5906 4.74938 34.4826C4.44378 34.3687 4.1147 34.312 3.76209 34.312C3.39185 34.312 3.04806 34.3744 2.7307 34.4995C2.41336 34.619 2.13714 34.7925 1.90208 35.0198C1.66701 35.2417 1.48189 35.5033 1.34672 35.8046C1.21743 36.1003 1.15279 36.4273 1.15279 36.7855C1.15279 37.1438 1.21743 37.4737 1.34672 37.775C1.48189 38.0707 1.66701 38.3323 1.90208 38.5598C2.13714 38.7815 2.41336 38.955 2.7307 39.0801C3.04806 39.1994 3.39185 39.2593 3.76209 39.2593C4.1147 39.2593 4.44378 39.2023 4.74938 39.0885C5.05499 38.9749 5.33413 38.793 5.58682 38.5427L6.00114 38.9437C5.7308 39.2335 5.39878 39.4525 5.00503 39.6004C4.61128 39.7482 4.18815 39.8222 3.73564 39.8222ZM9.34051 36.4699H12.6021V37.0074H9.34051V36.4699ZM9.41104 39.2251H13.1222V39.771H8.75872V33.8001H12.99V34.3461H9.41104V39.2251ZM17.2053 39.771V34.1754L17.3815 34.3461H15.0367V33.8001H20.0173V34.3461H17.6813L17.8488 34.1754V39.771H17.2053ZM25.1557 35.9325C25.8843 35.9325 26.4398 36.0918 26.8217 36.4103C27.2095 36.723 27.4035 37.1893 27.4035 37.8091C27.4035 38.4517 27.1978 38.9407 26.7865 39.2762C26.3751 39.6061 25.7874 39.771 25.0233 39.771H22.5728V33.8001H23.2162V35.9325H25.1557ZM25.0058 39.2677C25.5757 39.2677 26.0076 39.1454 26.3016 38.901C26.6013 38.6563 26.7512 38.2982 26.7512 37.8261C26.7512 37.3542 26.6042 37.0074 26.3104 36.7855C26.0165 36.5581 25.5817 36.4444 25.0058 36.4444H23.2162V39.2677H25.0058ZM38.1816 39.771L35.8104 36.7941L36.3392 36.4871L38.931 39.771H38.1816ZM33.9592 39.771V33.8001H34.5938V39.771H33.9592ZM34.4 37.0329V36.4785H36.3304V37.0329H34.4ZM36.3922 36.8538L35.7927 36.7514L38.0935 33.8001H38.7986L36.3922 36.8538ZM41.015 39.8222C40.9326 39.8222 40.8532 39.8164 40.7769 39.8051C40.7005 39.7994 40.6153 39.7852 40.5212 39.7624L40.5742 39.1994C40.6741 39.2222 40.771 39.2335 40.8651 39.2335C41.1294 39.2335 41.3411 39.1341 41.4997 38.9351C41.6643 38.7304 41.7878 38.4175 41.87 37.9969C41.9522 37.5703 42.0051 37.0243 42.0287 36.359L42.1168 33.8001H46.3041V39.771H45.6604V34.1754L45.828 34.3461H42.5312L42.6897 34.167L42.6103 36.3421C42.587 36.9391 42.5428 37.4565 42.4782 37.8943C42.4135 38.3267 42.3196 38.6877 42.1961 38.9778C42.0726 39.262 41.9141 39.4753 41.7201 39.6174C41.5261 39.7538 41.2912 39.8222 41.015 39.8222ZM49.7962 39.771V33.8001H50.4396V38.7474L54.3888 33.8001H54.9795V39.771H54.336V34.8323L50.3868 39.771H49.7962ZM62.9856 33.8001H63.6292V39.771H62.9856V33.8001ZM59.1246 39.771H58.4723V33.8001H59.1246V39.771ZM63.0474 37.0159H59.0541V36.4614H63.0474V37.0159ZM67.1226 39.771V33.8001H67.7661V38.7474L71.7152 33.8001H72.3059V39.771H71.6623V34.8323L67.7131 39.771H67.1226ZM80.0211 39.771L77.6498 36.7941L78.1788 36.4871L80.7703 39.771H80.0211ZM75.7986 39.771V33.8001H76.4333V39.771H75.7986ZM76.2393 37.0329V36.4785H78.1699V37.0329H76.2393ZM78.2316 36.8538L77.6322 36.7514L79.9329 33.8001H80.6382L78.2316 36.8538ZM87.0808 39.771V33.8001H87.7331V39.771H87.0808ZM92.8367 39.771L90.104 33.8001H90.8092L93.3656 39.4213H92.9777L95.5518 33.8001H96.213L93.4802 39.771H92.8367ZM97.9827 37.7238V37.1949H100.292V37.7238H97.9827ZM104.212 39.771V34.1754L104.388 34.3461H102.043V33.8001H107.024V34.3461H104.687L104.855 34.1754V39.771H104.212ZM110.161 36.4699H113.422V37.0074H110.161V36.4699ZM110.231 39.2251H113.943V39.771H109.579V33.8001H113.81V34.3461H110.231V39.2251ZM116.8 39.771V33.8001H119.11C119.633 33.8001 120.082 33.8826 120.459 34.0475C120.835 34.2067 121.123 34.4399 121.322 34.7469C121.528 35.0483 121.631 35.4151 121.631 35.8473C121.631 36.2682 121.528 36.6319 121.322 36.9391C121.123 37.2405 120.835 37.4737 120.459 37.6386C120.082 37.8035 119.633 37.8859 119.11 37.8859H117.162L117.453 37.5873V39.771H116.8ZM117.453 37.6386L117.162 37.3315H119.092C119.709 37.3315 120.177 37.2035 120.494 36.9475C120.817 36.6861 120.979 36.3193 120.979 35.8473C120.979 35.3695 120.817 34.9999 120.494 34.7383C120.177 34.4769 119.709 34.3461 119.092 34.3461H117.162L117.453 34.0475V37.6386ZM123.157 39.771L125.977 33.8001H126.621L129.442 39.771H128.754L126.163 34.167H126.427L123.835 39.771H123.157ZM124.267 38.1758L124.461 37.6641H128.049L128.243 38.1758H124.267ZM132.035 39.771V33.8001H137.227V39.771H136.583V34.1754L136.751 34.3461H132.511L132.678 34.1754V39.771H132.035ZM140.719 39.771V33.8001H141.363V38.7474L145.312 33.8001H145.903V39.771H145.259V34.8323L141.31 39.771H140.719ZM149.396 39.771V33.8001H150.039V38.7474L153.988 33.8001H154.579V39.771H153.935V34.8323L149.986 39.771H149.396Z" fill="#898989"/>
<path fill-rule="evenodd" clip-rule="evenodd" d="M74.2613 5.71129C72.2677 6.14964 70.5958 7.08478 68.8957 8.71215C67.2775 10.261 66.3768 11.7367 65.9107 13.6023C65.613 14.7936 65.6554 17.5105 65.9906 18.7294C66.8898 21.9985 69.7681 24.927 73.1672 26.0316C75.366 26.7461 78.6646 26.774 80.7378 26.0958C84.3879 24.9018 87.229 22.0157 88.1352 18.5806C88.4781 17.2808 88.4769 14.9482 88.1325 13.5343C87.3156 10.1813 84.4283 7.21455 80.8359 6.03718C79.1169 5.47386 76.0357 5.32112 74.2613 5.71129ZM127.736 5.70684C125.538 6.30409 123.621 7.88398 123.04 9.57598C122.447 11.3018 122.719 13.3123 123.715 14.5759C124.708 15.836 125.579 16.3357 128.302 17.2086C131.349 18.1858 131.972 18.4743 132.604 19.2012C133.276 19.9738 133.166 21.008 132.323 21.8501C131.565 22.6064 130.762 22.831 129.133 22.7422C127.689 22.6635 126.209 22.093 125.179 21.2185L124.609 20.7337L123.293 22.0227L121.978 23.3115L122.908 24.1465C124.665 25.722 127.064 26.5556 129.861 26.5626C131.817 26.5673 132.891 26.3665 134.259 25.7401C138.328 23.8777 139.093 18.4172 135.639 15.8959C135.033 15.4536 134.02 15.0183 132.272 14.4495C128.274 13.1477 127.558 12.6807 127.558 11.3719C127.558 9.56415 129.691 8.72501 132.084 9.59141C132.631 9.78958 133.342 10.1748 133.663 10.4472L134.246 10.9428L135.629 9.54238L137.011 8.14198L136.357 7.59478C135.423 6.81324 133.857 6.05706 132.508 5.73615C131.147 5.41232 128.87 5.39844 127.736 5.70684ZM35.9639 16.0023V26.2023H41.1816C44.3185 26.2023 46.7736 26.1265 47.3381 26.0122C49.4623 25.5822 51.3397 24.1577 52.2121 22.314C52.6018 21.4901 52.6502 21.1937 52.5798 20.0554C52.5265 19.1921 52.3731 18.5086 52.1302 18.0517C51.7319 17.3028 50.4048 16.0274 49.7011 15.7171L49.2658 15.5251L50.0435 14.7617C51.0973 13.7275 51.4377 12.9797 51.5215 11.5145C51.581 10.4741 51.5239 10.1427 51.1524 9.37164C50.2859 7.57301 48.4753 6.32364 46.2395 5.98129C45.6061 5.88426 43.0351 5.80438 40.5259 5.80369L35.9639 5.80232V16.0023ZM56.8694 16.0023V26.2023H59.1725H61.4757V16.0023V5.80232H59.1725H56.8694V16.0023ZM92.6568 16.0023V26.2023H94.9599H97.2631V22.6023V19.0023H99.1113C101.311 19.0023 100.861 18.5741 103.389 23.0718L105.147 26.1985L107.494 26.2004C108.786 26.2014 109.842 26.1545 109.842 26.0958C109.842 26.0374 108.885 24.3495 107.716 22.3452C106.547 20.3408 105.592 18.6337 105.595 18.5516C105.597 18.4695 105.928 18.2094 106.33 17.9737C107.284 17.4147 108.457 15.8695 108.853 14.6504C109.316 13.2271 109.192 11.0064 108.58 9.73489C108.006 8.54466 106.608 7.17341 105.377 6.59398C104.02 5.95489 102.532 5.80952 97.3074 5.80575L92.6568 5.80232V16.0023ZM113.917 16.0023V26.2023H116.22H118.523V16.0023V5.80232H116.22H113.917V16.0023ZM141.732 16.0004V26.2023H149.615H157.499V24.2309V22.2594H151.919H146.338V20.0309V17.8023H150.59H154.842V15.8309V13.8595H150.59H146.338V11.8023V9.74518H151.836H157.334L157.284 7.81661L157.234 5.88804L149.483 5.84329L141.732 5.79872V16.0004ZM78.9265 9.62382C80.865 10.2158 82.6016 11.7494 83.2592 13.4501C85.1857 18.4321 81.2146 23.3814 75.9375 22.5756C74.1409 22.3011 72.6897 21.4116 71.5695 19.8978C70.628 18.6257 70.2772 17.384 70.3699 15.6518C70.5193 12.8633 72.3784 10.4623 75.0109 9.65809C75.9598 9.36821 78.03 9.35022 78.9265 9.62382ZM46.1856 9.90906C47.2112 10.5142 47.4164 12.3468 46.5468 13.1348C45.8849 13.7347 45.2507 13.8595 42.8618 13.8595H40.5702V11.7166V9.57375L43.0948 9.57444C45.2845 9.57495 45.6945 9.61935 46.1856 9.90906ZM103.541 10.325C105.182 11.5368 105.045 13.7906 103.268 14.802C102.754 15.0948 102.274 15.1534 99.9648 15.206L97.2631 15.2676V12.4913V9.71502L100.068 9.77295C102.845 9.83038 102.879 9.83569 103.541 10.325ZM46.5902 17.6737C47.7002 18.2226 48.0997 18.8237 48.0997 19.9452C48.0997 20.9364 47.7849 21.5091 46.8804 22.1631C46.4421 22.4801 46.0905 22.5226 43.4808 22.5742L40.5702 22.6318V19.9599V17.288H43.1901C45.5579 17.288 45.8851 17.3252 46.5902 17.6737Z" fill="#373737"/>
<path d="M24.3906 27.8594L25.7908 26.388C26.5609 25.5787 27.2914 24.916 27.4143 24.9153C27.5973 24.9141 31.1599 28.05 31.3109 28.3452C31.3359 28.3937 30.6377 29.1256 29.7594 29.9714L28.1627 31.5093L26.2765 29.6844L24.3906 27.8594Z" fill="#006465"/>
<path fill-rule="evenodd" clip-rule="evenodd" d="M24.5686 0.291295C24.3602 0.514286 24.0548 0.729124 23.5405 0.977009L22.6054 1.42787L13.7303 1.45715C8.84409 1.45715 3.72047 1.45715 2.39173 1.45715H0V12.5632C0.0522638 18.5592 0 24.3429 0 24.3429V25.254H2.18091C3.72352 25.2521 4.51772 25.254 4.78134 25.254C4.78134 25.254 4.78134 24.5501 4.78134 24.0742C4.78134 23.6244 4.78346 23.0571 4.78346 23.0571C4.78346 23.0571 5.30288 22.6049 5.88862 22.0445L6.9959 20.9854H9.47835H12.0472V25.9714C12.0472 28.7143 12.0281 30.9329 12.0472 30.9429C12.0664 30.953 13.9961 30.9429 15.8985 30.9495L19.6654 30.9429V27.1714C19.6654 24.9993 19.6654 23.4 19.6654 23.4C19.7403 23.4 20.5131 24.1035 21.4349 24.9993C22.3567 25.895 23.1941 26.6278 23.2958 26.6278C23.5311 26.6278 26.2183 24.0207 26.2183 23.7924C26.2183 23.6985 25.3812 22.8144 24.3581 21.8278C23.335 20.8413 22.4979 19.9762 22.4979 19.9056C22.4979 19.835 24.3581 19.8254 26.5748 19.8H30.8268V16.2V12.6H25.3346H20.1968L20.166 10.085L20.2259 7.51358L21.1052 6.64221C21.8792 5.87506 22.1141 5.74752 23.0692 5.57558C24.3918 5.33764 26.449 4.41586 27.3322 3.66552L27.9845 3.11129L26.5287 1.58387C25.6725 0.685368 24.8031 0 24.8031 0C24.8031 0 24.7769 0.0683038 24.5686 0.291295ZM4.78346 16.2C4.78346 16.2 15.0263 6.09929 15.0591 6.08571C15.0918 6.07215 14.6161 6.08571 14.0846 6.08571C13.5531 6.08571 11.1237 6.05863 8.85827 6.08571C5.75787 6.08571 4.78346 6.08571 4.78346 6.08571C4.78346 6.51429 4.78346 16.1143 4.78346 16.2ZM15.5096 19.4546L18.9546 22.7385V26.5452V30.4286H15.9449C14.2618 30.4286 12.5787 30.4286 12.5787 30.4286C12.5787 30.4286 12.6253 28.1211 12.5766 25.3709V20.3143H10.187C8.94632 20.3079 7.79528 20.3143 7.79528 20.3143C7.79528 20.3143 11.5388 16.173 11.8334 16.1717C11.9606 16.1712 13.615 17.6484 15.5096 19.4546ZM19.4556 13.2564L19.4882 10.8857C19.4882 9.51429 19.4882 8.48571 19.4882 8.48571C19.2972 8.42417 15.0569 12.6254 15.0569 12.8796C15.0569 12.9696 16.535 14.4412 18.3416 16.1498L21.626 19.2564H25.8711H30.116V16.2564V13.2564H24.7858H19.4556Z" fill="#006465"/>
</g>
<defs>
<clipPath id="clip0_3705_837">
<rect width="157.5" height="42" fill="white"/>
</clipPath>
</defs>
</svg>
